<svg width="24" height="24" viewBox="0 0 24 24" fill="none" xmlns="http://www.w3.org/2000/svg">
<path d="M11.9362 13.2132C11.011 13.2143 10.1141 12.8947 9.39815 12.3088C8.68218 11.7229 8.19145 10.907 8.0095 9.99989C7.995 9.90434 8.00144 9.80678 8.02839 9.71397C8.05533 9.62116 8.10213 9.53532 8.16555 9.4624C8.22896 9.38947 8.30748 9.3312 8.39564 9.29163C8.48381 9.25206 8.57953 9.23213 8.67617 9.23322C8.83499 9.23092 8.98942 9.28539 9.11164 9.38683C9.23386 9.48828 9.31585 9.63003 9.34284 9.78656C9.46839 10.3858 9.79635 10.9237 10.2716 11.3097C10.7469 11.6957 11.3405 11.9064 11.9528 11.9064C12.5651 11.9064 13.1588 11.6957 13.634 11.3097C14.1093 10.9237 14.4373 10.3858 14.5628 9.78656C14.5898 9.63003 14.6718 9.48828 14.794 9.38683C14.9163 9.28539 15.0707 9.23092 15.2295 9.23322C15.3261 9.23213 15.4219 9.25206 15.51 9.29163C15.5982 9.3312 15.6767 9.38947 15.7401 9.4624C15.8035 9.53532 15.8503 9.62116 15.8773 9.71397C15.9042 9.80678 15.9107 9.90434 15.8962 9.99989C15.7131 10.9126 15.2175 11.7329 14.4947 12.3195C13.7718 12.906 12.867 13.2221 11.9362 13.2132Z" fill="#18484F"/>
<path d="M17.8692 22.0001H6.0025C5.73123 22.0004 5.46272 21.9456 5.21331 21.8389C4.9639 21.7322 4.73881 21.5758 4.55172 21.3794C4.36464 21.183 4.21947 20.9505 4.12505 20.6962C4.03063 20.4419 3.98894 20.171 4.0025 19.9001L4.5425 8.40674C4.56485 7.89147 4.78539 7.40476 5.15807 7.04823C5.53075 6.6917 6.02675 6.49292 6.5425 6.49341H17.3292C17.8449 6.49292 18.3409 6.6917 18.7136 7.04823C19.0863 7.40476 19.3068 7.89147 19.3292 8.40674L19.8692 19.9001C19.8827 20.171 19.841 20.4419 19.7466 20.6962C19.6522 20.9505 19.507 21.183 19.3199 21.3794C19.1329 21.5758 18.9078 21.7322 18.6584 21.8389C18.4089 21.9456 18.1404 22.0004 17.8692 22.0001ZM6.5425 7.83341C6.36569 7.83341 6.19612 7.90365 6.0711 8.02867C5.94607 8.1537 5.87583 8.32327 5.87583 8.50008L5.33583 19.9667C5.33131 20.0571 5.34521 20.1473 5.37668 20.2321C5.40816 20.3169 5.45655 20.3944 5.51891 20.4598C5.58127 20.5253 5.6563 20.5774 5.73944 20.613C5.82257 20.6486 5.91208 20.6669 6.0025 20.6667H17.8692C17.9596 20.6669 18.0491 20.6486 18.1322 20.613C18.2154 20.5774 18.2904 20.5253 18.3528 20.4598C18.4151 20.3944 18.4635 20.3169 18.495 20.2321C18.5265 20.1473 18.5404 20.0571 18.5358 19.9667L17.9958 8.47341C17.9958 8.2966 17.9256 8.12703 17.8006 8.00201C17.6755 7.87698 17.506 7.80674 17.3292 7.80674L6.5425 7.83341Z" fill="#18484F"/>
<path d="M15.9355 7.16667H14.6022V6C14.6022 5.29276 14.3213 4.61448 13.8212 4.11438C13.3211 3.61428 12.6428 3.33333 11.9355 3.33333C11.2283 3.33333 10.55 3.61428 10.0499 4.11438C9.54983 4.61448 9.26888 5.29276 9.26888 6V7.16667H7.93555V6C7.93555 4.93913 8.35697 3.92172 9.10712 3.17157C9.85727 2.42143 10.8747 2 11.9355 2C12.9964 2 14.0138 2.42143 14.764 3.17157C15.5141 3.92172 15.9355 4.93913 15.9355 6V7.16667Z" fill="#18484F"/>
</svg>
