<svg width="24" height="24" viewBox="0 0 24 24" fill="none" xmlns="http://www.w3.org/2000/svg">
<path d="M9.5 8.37557C10.6187 7.31654 11.0029 6.86331 13.0029 5.36322C14.8736 3.96019 18.2198 3.13369 20.4986 5.45995C21.4479 6.42908 21.8351 7.40664 21.9979 8.37557C22.4457 10.8512 20.4854 12.9352 18.5029 14.8632C16.0811 17.2186 13.396 19.2459 12.0097 20.4478" stroke="#18484F" stroke-width="1.5" stroke-linecap="round"/>
<path d="M14.5 8.37557C13.3813 7.31654 13.0595 6.86331 11.0595 5.36322C9.18877 3.96019 5.84256 3.13369 3.56383 5.45995C2.6145 6.42908 2.22729 7.40664 2.06451 8.37557C1.61673 10.8512 3.57696 12.9352 5.55945 14.8632C7.98132 17.2186 10.6664 19.2459 12.0527 20.4478" stroke="#18484F" stroke-width="1.5" stroke-linecap="round"/>
</svg>
