<svg xmlns="http://www.w3.org/2000/svg" xmlns:xlink="http://www.w3.org/1999/xlink" width="500" zoomAndPan="magnify" viewBox="0 0 375 374.999991" height="500" preserveAspectRatio="xMidYMid meet" version="1.0"><path fill="#0f484e" d="M 169.984375 136.789062 C 153.628906 128.921875 134.824219 124.589844 114.929688 124.757812 C 113.53125 122.839844 134.304688 88.113281 136.53125 82.457031 C 138.039062 78.621094 142.132812 70.21875 139.519531 67.046875 C 138.132812 65.371094 103.738281 48.28125 100.621094 47.882812 C 90.410156 46.597656 76.496094 52.941406 66.503906 56.398438 C 58.503906 59.164062 35.320312 67.339844 29.65625 72.011719 C 27.695312 73.628906 8.097656 111.367188 8.355469 113.6875 C 9.246094 121.800781 57.886719 137.59375 65.472656 142.585938 C 30.167969 169.972656 4.914062 208.4375 17.210938 254.617188 C 42.144531 348.238281 162.097656 360.519531 210.015625 283.976562 C 214.296875 286.28125 218.871094 288.316406 223.789062 290.015625 C 323.53125 324.476562 406.289062 211.503906 343.300781 124.777344 C 296.863281 60.839844 211.566406 76.730469 169.992188 136.78125 Z M 136.824219 130.164062 C 205.191406 140.605469 240.164062 204.390625 217.6875 262.875 C 214.554688 260.5625 211.515625 258.007812 208.601562 255.253906 C 211.222656 246.871094 212.714844 237.824219 212.824219 228.214844 C 213.550781 165.410156 162.296875 140.214844 106.726562 141.429688 C 108.386719 124.75 124.035156 128.21875 136.824219 130.171875 Z M 186.765625 146.722656 C 206.917969 118.324219 250.609375 91.398438 290.09375 105.292969 C 388.257812 139.835938 346.507812 294.171875 245.800781 275.828125 C 236.964844 274.21875 228.132812 270.171875 219.867188 264.441406 C 220.261719 263.445312 220.652344 262.441406 221.023438 261.417969 C 238.4375 213.671875 220.914062 171.207031 186.765625 146.730469 Z M 206.617188 253.328125 C 185.207031 232.050781 171.125 200.164062 177.816406 175.160156 C 177.835938 175.085938 180.582031 168.359375 181.570312 165.929688 C 195.105469 176.238281 203.265625 190.0625 207.460938 206.394531 C 211.890625 223.648438 211.121094 239.449219 206.625 253.335938 Z M 95.722656 149.953125 C 96.925781 149.6875 99.03125 145.660156 106.132812 145.734375 C 130.25 145.984375 149.339844 149.601562 164.25 155.976562 C 160.183594 169.078125 157.964844 177.1875 157.847656 187.386719 C 157.464844 221.386719 170.964844 253.980469 195.925781 274.550781 C 160.746094 324.300781 71.398438 333.765625 41.273438 264.9375 C 25.300781 228.449219 49.007812 165.308594 86.773438 152.316406 C 92.65625 150.289062 94.949219 150.121094 95.714844 149.953125 Z M 95.058594 146.421875 L 52.652344 107.890625 C 52.707031 105.964844 84.246094 94.65625 88.273438 93.214844 C 90.429688 92.441406 101.753906 88.195312 102.714844 88.824219 L 95.058594 146.429688 Z M 99.054688 146.085938 C 98.367188 146.117188 98.09375 142.359375 98.101562 141.78125 C 98.199219 137.609375 105.011719 92.109375 106.101562 89.71875 C 107.734375 86.144531 128.371094 76.160156 132.492188 75.09375 C 133.785156 74.753906 134.203125 75.070312 135.265625 75.691406 Z M 105.582031 53.394531 L 133.375 68.621094 L 133.082031 70.78125 L 105.445312 81.714844 Z M 102.808594 52.796875 C 103.546875 53.894531 100.117188 75.488281 102.039062 79.269531 C 100.695312 80.675781 70.171875 63.753906 68.675781 59.773438 C 74.46875 58.359375 99.023438 47.160156 102.800781 52.796875 Z M 100.832031 83.28125 L 51.386719 102.664062 L 65.011719 64.105469 C 68.078125 62.390625 96.425781 80.238281 100.832031 83.28125 Z M 43.796875 68.234375 C 45.984375 67.257812 62.167969 61.222656 63.15625 63.191406 L 48.292969 99.597656 L 30 77.542969 C 29.917969 74.703125 41.242188 69.359375 43.796875 68.226562 Z M 27.246094 80.027344 L 46.167969 103.925781 L 16.355469 111.492188 C 12.886719 110.359375 26.582031 83.789062 27.246094 80.03125 Z M 17.605469 115.175781 L 48.957031 107.597656 L 90.4375 146.445312 Z M 201.808594 291.070312 C 121.070312 396.929688 -54.53125 274.210938 48.664062 161.164062 C 50.949219 158.660156 66.804688 144.535156 68.574219 144.117188 C 70.132812 143.75 79.746094 148.554688 82.144531 149.269531 C 33.988281 184.382812 7.855469 248.46875 58.699219 295.007812 C 103.652344 336.152344 169.84375 321.609375 198.609375 276.679688 C 201.449219 278.839844 204.464844 280.84375 207.65625 282.6875 C 205.855469 285.515625 203.917969 288.316406 201.808594 291.078125 Z M 211.441406 281.621094 C 211.246094 281.472656 209.464844 280.582031 209.152344 280.257812 C 206.097656 278.382812 203.132812 276.292969 200.273438 273.972656 C 199.695312 273.464844 198.808594 272.578125 197.761719 271.863281 C 182.625 258.679688 170.488281 239.003906 163.863281 211.714844 C 163.066406 208.421875 160.597656 192.605469 160.597656 185.496094 C 160.597656 185.09375 164.917969 158.660156 165.929688 157.953125 C 167.347656 156.949219 176.804688 162.605469 178.371094 164.171875 C 180.148438 165.953125 174.996094 173.878906 173.929688 180.167969 C 170.003906 203.203125 182.449219 235.554688 205.628906 257.238281 C 206.246094 257.917969 207.359375 258.964844 207.402344 258.855469 C 210.265625 261.402344 217.085938 266.542969 217.472656 266.6875 C 234.777344 278.3125 256.296875 284.011719 280.476562 278.179688 C 357.648438 259.566406 376.621094 158.214844 311.195312 113.039062 C 263.675781 80.222656 215.167969 105.285156 184.753906 145.3125 C 181.042969 142.769531 177.140625 140.441406 173.078125 138.335938 C 175.5625 133.175781 183.144531 125.921875 187.410156 121.289062 C 241.980469 62.039062 331.273438 80.78125 357.171875 157.300781 C 389.78125 253.644531 280.804688 321.367188 211.449219 281.628906 Z M 211.441406 281.621094 " fill-opacity="1" fill-rule="nonzero"/></svg>