<svg xmlns="http://www.w3.org/2000/svg" xmlns:xlink="http://www.w3.org/1999/xlink" width="400" zoomAndPan="magnify" viewBox="0 0 300 112.499997" height="150" preserveAspectRatio="xMidYMid meet" version="1.0"><defs><g/><clipPath id="c76b124f5f"><path d="M 96 0 L 299.335938 0 L 299.335938 112.003906 L 96 112.003906 Z M 96 0 " clip-rule="nonzero"/></clipPath><clipPath id="9889bd995d"><rect x="0" width="204" y="0" height="113"/></clipPath><clipPath id="d86ba4a5f6"><path d="M 8 25.710938 L 96 25.710938 L 96 97 L 8 97 Z M 8 25.710938 " clip-rule="nonzero"/></clipPath><clipPath id="c9194dbe48"><path d="M 173 90 L 299.335938 90 L 299.335938 108 L 173 108 Z M 173 90 " clip-rule="nonzero"/></clipPath><clipPath id="d43c6db917"><rect x="0" width="127" y="0" height="18"/></clipPath></defs><g clip-path="url(#c76b124f5f)"><g transform="matrix(1, 0, 0, 1, 96, 0)"><g clip-path="url(#9889bd995d)"><g fill="#0f484e" fill-opacity="1"><g transform="translate(0.727505, 67.144707)"><g><path d="M 0.875 5.890625 C 0.875 5.367188 1.09375 4.664062 1.53125 3.78125 C 1.976562 2.90625 2.453125 1.953125 2.953125 0.921875 C 3.453125 -0.0976562 3.789062 -1.019531 3.96875 -1.84375 L 5.015625 -11.703125 C 5.429688 -15.285156 5.988281 -19.257812 6.6875 -23.625 C 7.394531 -28 8.21875 -32.359375 9.15625 -36.703125 C 10.09375 -41.046875 11.03125 -44.890625 11.96875 -48.234375 L 15.75 -60.65625 C 16.164062 -61.832031 16.503906 -62.65625 16.765625 -63.125 C 17.035156 -63.59375 17.609375 -63.828125 18.484375 -63.828125 C 19.128906 -63.828125 19.476562 -63.472656 19.53125 -62.765625 C 19.59375 -62.054688 19.535156 -61.21875 19.359375 -60.25 C 19.191406 -59.289062 18.972656 -58.367188 18.703125 -57.484375 C 18.441406 -56.597656 18.253906 -56.007812 18.140625 -55.71875 C 16.847656 -50.90625 15.613281 -45.972656 14.4375 -40.921875 C 13.257812 -35.878906 12.234375 -30.894531 11.359375 -25.96875 C 11.242188 -25.09375 11.023438 -23.800781 10.703125 -22.09375 C 10.378906 -20.394531 10.097656 -18.707031 9.859375 -17.03125 C 9.617188 -15.363281 9.5 -14.144531 9.5 -13.375 C 10.03125 -14.019531 10.351562 -14.472656 10.46875 -14.734375 C 10.59375 -15.003906 10.832031 -15.460938 11.1875 -16.109375 C 11.476562 -16.578125 11.769531 -17.0625 12.0625 -17.5625 C 12.351562 -18.0625 12.617188 -18.515625 12.859375 -18.921875 C 14.023438 -20.859375 15.019531 -22.457031 15.84375 -23.71875 C 16.664062 -24.976562 17.441406 -26.09375 18.171875 -27.0625 C 18.910156 -28.03125 19.734375 -29.054688 20.640625 -30.140625 C 21.554688 -31.234375 22.6875 -32.601562 24.03125 -34.25 C 24.5 -34.832031 25.332031 -35.738281 26.53125 -36.96875 C 27.738281 -38.207031 29.148438 -39.570312 30.765625 -41.0625 C 32.378906 -42.5625 34.019531 -44 35.6875 -45.375 C 37.363281 -46.757812 38.90625 -47.890625 40.3125 -48.765625 C 41.726562 -49.648438 42.785156 -50.09375 43.484375 -50.09375 C 44.546875 -50.09375 45.148438 -49.828125 45.296875 -49.296875 C 45.441406 -48.765625 45.394531 -48.21875 45.15625 -47.65625 C 44.925781 -47.101562 44.722656 -46.769531 44.546875 -46.65625 C 44.078125 -46.300781 43.738281 -46.164062 43.53125 -46.25 C 43.320312 -46.34375 42.925781 -46.273438 42.34375 -46.046875 C 42.101562 -45.921875 41.835938 -45.726562 41.546875 -45.46875 C 41.253906 -45.207031 40.992188 -44.988281 40.765625 -44.8125 C 40.171875 -44.394531 39.625 -43.976562 39.125 -43.5625 C 38.625 -43.15625 38.082031 -42.71875 37.5 -42.25 L 34.59375 -39.609375 C 33.769531 -38.785156 32.828125 -37.921875 31.765625 -37.015625 C 30.710938 -36.109375 29.691406 -35.097656 28.703125 -33.984375 L 23.5 -28 C 20.863281 -24.769531 18.488281 -21.378906 16.375 -17.828125 C 14.257812 -14.273438 12.265625 -10.648438 10.390625 -6.953125 C 9.796875 -5.722656 9.304688 -4.722656 8.921875 -3.953125 C 8.546875 -3.191406 8.269531 -2.359375 8.09375 -1.453125 C 7.914062 -0.546875 7.828125 0.785156 7.828125 2.546875 C 9.585938 2.546875 11.304688 2.957031 12.984375 3.78125 C 14.660156 4.601562 16.242188 5.613281 17.734375 6.8125 C 19.234375 8.019531 20.570312 9.210938 21.75 10.390625 L 32.75 20.59375 C 33.101562 20.945312 33.484375 21.300781 33.890625 21.65625 C 34.304688 22.007812 34.71875 22.332031 35.125 22.625 C 35.59375 22.976562 35.988281 23.300781 36.3125 23.59375 C 36.632812 23.882812 37 24.207031 37.40625 24.5625 L 45.78125 31.15625 C 46.300781 31.75 46.441406 32.28125 46.203125 32.75 C 45.972656 33.21875 45.625 33.453125 45.15625 33.453125 C 44.863281 33.453125 44.21875 33.144531 43.21875 32.53125 C 42.226562 31.914062 41.085938 31.132812 39.796875 30.1875 C 38.503906 29.25 37.210938 28.28125 35.921875 27.28125 C 34.628906 26.289062 33.507812 25.410156 32.5625 24.640625 C 31.625 23.878906 31.007812 23.382812 30.71875 23.15625 L 22.09375 15.3125 C 20.976562 14.195312 19.566406 12.890625 17.859375 11.390625 C 16.160156 9.898438 14.398438 8.566406 12.578125 7.390625 C 10.765625 6.222656 9.097656 5.640625 7.578125 5.640625 C 7.578125 6.398438 7.53125 6.925781 7.4375 7.21875 C 7.351562 7.507812 7.3125 8.007812 7.3125 8.71875 C 7.25 9.59375 7.1875 10.71875 7.125 12.09375 C 7.070312 13.476562 7.03125 14.945312 7 16.5 C 6.96875 18.0625 6.96875 19.5 7 20.8125 C 7.03125 22.132812 7.070312 23.148438 7.125 23.859375 C 7.25 24.734375 7.296875 25.640625 7.265625 26.578125 C 7.234375 27.523438 7.25 28.4375 7.3125 29.3125 C 7.363281 30.539062 7.503906 31.90625 7.734375 33.40625 C 7.972656 34.90625 8.09375 36.179688 8.09375 37.234375 C 8.09375 38.296875 7.742188 38.828125 7.046875 38.828125 C 6.273438 38.828125 5.757812 38.585938 5.5 38.109375 C 5.238281 37.640625 5.050781 37.054688 4.9375 36.359375 C 4.632812 34.710938 4.4375 32.816406 4.34375 30.671875 C 4.257812 28.535156 4.070312 26.46875 3.78125 24.46875 C 3.664062 23.644531 3.578125 22.46875 3.515625 20.9375 C 3.460938 19.414062 3.421875 17.773438 3.390625 16.015625 C 3.359375 14.253906 3.34375 12.597656 3.34375 11.046875 C 3.34375 9.492188 3.34375 8.335938 3.34375 7.578125 L 2.734375 7.578125 C 2.316406 7.453125 1.898438 7.316406 1.484375 7.171875 C 1.078125 7.023438 0.875 6.597656 0.875 5.890625 Z M 0.875 5.890625 "/></g></g></g><g fill="#0f484e" fill-opacity="1"><g transform="translate(34.881378, 67.144707)"><g><path d="M 1.234375 -0.359375 C 0.648438 -0.359375 0.296875 -0.722656 0.171875 -1.453125 C 0.0546875 -2.179688 0.0234375 -2.957031 0.078125 -3.78125 C 0.140625 -4.601562 0.171875 -5.101562 0.171875 -5.28125 C 0.117188 -6.332031 0.101562 -7.398438 0.125 -8.484375 C 0.15625 -9.578125 0.144531 -10.679688 0.09375 -11.796875 C 0.09375 -12.203125 0.101562 -12.976562 0.125 -14.125 C 0.15625 -15.269531 0.242188 -16.488281 0.390625 -17.78125 C 0.535156 -19.070312 0.753906 -20.1875 1.046875 -21.125 C 1.347656 -22.0625 1.734375 -22.53125 2.203125 -22.53125 C 3.378906 -22.53125 3.976562 -22.148438 4 -21.390625 C 4.03125 -20.628906 3.988281 -19.632812 3.875 -18.40625 C 3.8125 -17.988281 3.78125 -17.53125 3.78125 -17.03125 C 3.78125 -16.53125 3.78125 -16.046875 3.78125 -15.578125 C 3.78125 -14.992188 3.75 -14.613281 3.6875 -14.4375 C 3.632812 -14.257812 3.609375 -13.878906 3.609375 -13.296875 C 4.253906 -13.765625 4.835938 -14.304688 5.359375 -14.921875 C 5.890625 -15.535156 6.832031 -15.84375 8.1875 -15.84375 C 8.59375 -15.84375 9.132812 -15.859375 9.8125 -15.890625 C 10.488281 -15.921875 11.207031 -15.9375 11.96875 -15.9375 C 13.257812 -15.9375 14.460938 -15.863281 15.578125 -15.71875 C 16.691406 -15.570312 17.25 -15.203125 17.25 -14.609375 C 17.25 -14.023438 16.941406 -13.644531 16.328125 -13.46875 C 15.710938 -13.289062 14.960938 -13.203125 14.078125 -13.203125 C 13.492188 -13.203125 12.894531 -13.21875 12.28125 -13.25 C 11.664062 -13.28125 11.125 -13.296875 10.65625 -13.296875 C 9.007812 -13.296875 7.90625 -13.207031 7.34375 -13.03125 C 6.789062 -12.851562 6.160156 -12.175781 5.453125 -11 C 5.046875 -10.238281 4.648438 -9.414062 4.265625 -8.53125 C 3.890625 -7.65625 3.613281 -6.691406 3.4375 -5.640625 C 3.257812 -4.867188 3.179688 -4.070312 3.203125 -3.25 C 3.234375 -2.4375 3.144531 -1.75 2.9375 -1.1875 C 2.738281 -0.632812 2.171875 -0.359375 1.234375 -0.359375 Z M 1.234375 -0.359375 "/></g></g></g><g fill="#0f484e" fill-opacity="1"><g transform="translate(49.229525, 67.144707)"><g><path d="M 7.3125 0.359375 C 6.132812 0.359375 5.085938 -0.0195312 4.171875 -0.78125 C 3.265625 -1.550781 2.578125 -2.347656 2.109375 -3.171875 C 1.054688 -5.160156 0.457031 -7.519531 0.3125 -10.25 C 0.164062 -12.976562 0.328125 -15.457031 0.796875 -17.6875 C 0.910156 -18.332031 1.066406 -19.109375 1.265625 -20.015625 C 1.472656 -20.929688 1.78125 -21.738281 2.1875 -22.4375 C 2.601562 -23.144531 3.109375 -23.5 3.703125 -23.5 C 5.046875 -23.5 5.703125 -23.046875 5.671875 -22.140625 C 5.648438 -21.234375 5.398438 -19.820312 4.921875 -17.90625 C 4.453125 -16 4.21875 -13.550781 4.21875 -10.5625 C 4.21875 -9.6875 4.335938 -8.628906 4.578125 -7.390625 C 4.816406 -6.160156 5.179688 -5.078125 5.671875 -4.140625 C 6.171875 -3.203125 6.804688 -2.734375 7.578125 -2.734375 C 8.515625 -2.734375 9.582031 -3.140625 10.78125 -3.953125 C 11.988281 -4.773438 13.101562 -5.703125 14.125 -6.734375 C 15.15625 -7.765625 15.875 -8.539062 16.28125 -9.0625 C 16.40625 -9.1875 16.726562 -9.582031 17.25 -10.25 C 17.78125 -10.925781 18.410156 -11.691406 19.140625 -12.546875 C 19.878906 -13.398438 20.597656 -14.144531 21.296875 -14.78125 C 22.003906 -15.425781 22.5625 -15.75 22.96875 -15.75 C 23.382812 -15.75 23.59375 -15.398438 23.59375 -14.703125 C 23.59375 -14.285156 23.3125 -13.648438 22.75 -12.796875 C 22.195312 -11.953125 21.535156 -11.0625 20.765625 -10.125 C 20.003906 -9.1875 19.257812 -8.304688 18.53125 -7.484375 C 17.800781 -6.660156 17.257812 -6.070312 16.90625 -5.71875 C 16.195312 -5.019531 15.359375 -4.1875 14.390625 -3.21875 C 13.421875 -2.25 12.347656 -1.410156 11.171875 -0.703125 C 10.003906 0.00390625 8.71875 0.359375 7.3125 0.359375 Z M 4.484375 -34.59375 C 4.484375 -35.59375 4.75 -36.457031 5.28125 -37.1875 C 5.8125 -37.925781 6.398438 -38.296875 7.046875 -38.296875 C 7.742188 -38.296875 8.328125 -37.851562 8.796875 -36.96875 C 9.617188 -35.332031 9.722656 -34.054688 9.109375 -33.140625 C 8.492188 -32.234375 7.742188 -31.78125 6.859375 -31.78125 C 6.273438 -31.78125 5.734375 -32.015625 5.234375 -32.484375 C 4.734375 -32.953125 4.484375 -33.65625 4.484375 -34.59375 Z M 4.484375 -34.59375 "/></g></g></g><g fill="#0f484e" fill-opacity="1"><g transform="translate(69.299325, 67.144707)"><g><path d="M 1.0625 14.53125 C 1.0625 15.757812 1.441406 16.375 2.203125 16.375 C 2.609375 16.375 3.046875 16.226562 3.515625 15.9375 C 3.984375 15.644531 4.367188 15.378906 4.671875 15.140625 C 5.835938 14.265625 6.875 12.929688 7.78125 11.140625 C 8.695312 9.347656 9.359375 7.71875 9.765625 6.25 C 10.066406 5.25 10.226562 4.234375 10.25 3.203125 C 10.28125 2.179688 10.296875 1.054688 10.296875 -0.171875 C 9.597656 0.234375 8.789062 0.945312 7.875 1.96875 C 6.96875 3 6.25 3.835938 5.71875 4.484375 C 4.664062 5.773438 3.625 7.332031 2.59375 9.15625 C 1.570312 10.976562 1.0625 12.769531 1.0625 14.53125 Z M 0.265625 -14.265625 C 0.265625 -15.785156 0.675781 -17.144531 1.5 -18.34375 C 2.320312 -19.550781 3.300781 -20.519531 4.4375 -21.25 C 5.582031 -21.988281 6.566406 -22.359375 7.390625 -22.359375 C 8.035156 -22.359375 8.519531 -22.125 8.84375 -21.65625 C 9.164062 -21.1875 9.179688 -20.394531 8.890625 -19.28125 C 8.179688 -19.101562 7.679688 -19 7.390625 -18.96875 C 7.097656 -18.9375 6.863281 -18.847656 6.6875 -18.703125 C 6.507812 -18.554688 6.1875 -18.21875 5.71875 -17.6875 C 4.550781 -16.394531 4.007812 -15.351562 4.09375 -14.5625 C 4.175781 -13.769531 4.644531 -13.035156 5.5 -12.359375 C 6.351562 -11.691406 7.410156 -10.859375 8.671875 -9.859375 C 9.929688 -8.859375 11.117188 -7.507812 12.234375 -5.8125 C 13.523438 -6.6875 14.847656 -7.710938 16.203125 -8.890625 L 24.390625 -14.609375 C 25.148438 -15.140625 25.804688 -15.503906 26.359375 -15.703125 C 26.921875 -15.910156 27.40625 -16.015625 27.8125 -16.015625 C 28.519531 -16.015625 28.8125 -15.722656 28.6875 -15.140625 C 28.570312 -14.554688 28.019531 -13.96875 27.03125 -13.375 L 21.046875 -9.25 C 20.804688 -9.125 20.304688 -8.78125 19.546875 -8.21875 C 18.785156 -7.664062 17.945312 -7.050781 17.03125 -6.375 C 16.125 -5.707031 15.347656 -5.078125 14.703125 -4.484375 C 14.054688 -3.898438 13.703125 -3.519531 13.640625 -3.34375 C 13.585938 -3.050781 13.675781 -2.492188 13.90625 -1.671875 C 14.144531 -0.847656 14.304688 0.21875 14.390625 1.53125 C 14.484375 2.851562 14.304688 4.46875 13.859375 6.375 C 13.421875 8.289062 12.46875 10.507812 11 13.03125 C 9.707031 15.195312 8.296875 16.789062 6.765625 17.8125 C 5.242188 18.84375 3.8125 19.359375 2.46875 19.359375 C 1.226562 19.359375 0.210938 18.945312 -0.578125 18.125 C -1.367188 17.3125 -1.765625 16.113281 -1.765625 14.53125 C -1.765625 12.53125 -1.28125 10.585938 -0.3125 8.703125 C 0.65625 6.828125 1.8125 5.097656 3.15625 3.515625 C 4.507812 1.929688 5.757812 0.570312 6.90625 -0.5625 C 8.050781 -1.707031 8.800781 -2.546875 9.15625 -3.078125 C 8.445312 -4.316406 7.59375 -5.390625 6.59375 -6.296875 C 5.601562 -7.203125 4.625 -8.035156 3.65625 -8.796875 C 2.6875 -9.566406 1.878906 -10.375 1.234375 -11.21875 C 0.585938 -12.070312 0.265625 -13.085938 0.265625 -14.265625 Z M 0.265625 -14.265625 "/></g></g></g><g fill="#0f484e" fill-opacity="1"><g transform="translate(94.738681, 67.144707)"><g><path d="M -0.53125 -7.3125 L 0 -17.25 C 0.0625 -17.894531 0.117188 -18.671875 0.171875 -19.578125 C 0.234375 -20.492188 0.296875 -21.273438 0.359375 -21.921875 C 0.472656 -24.859375 0.835938 -27.765625 1.453125 -30.640625 C 2.066406 -33.515625 2.726562 -36.359375 3.4375 -39.171875 C 3.84375 -40.347656 4.160156 -41.125 4.390625 -41.5 C 4.628906 -41.882812 4.957031 -42.078125 5.375 -42.078125 C 5.550781 -42.078125 5.753906 -42.0625 5.984375 -42.03125 C 6.222656 -42 6.488281 -41.957031 6.78125 -41.90625 C 7.070312 -40.550781 7.007812 -38.945312 6.59375 -37.09375 C 6.1875 -35.25 5.867188 -33.566406 5.640625 -32.046875 C 4.992188 -27.992188 4.460938 -23.53125 4.046875 -18.65625 C 3.640625 -13.789062 3.4375 -9.15625 3.4375 -4.75 L 3.703125 5.109375 L 4.40625 3.4375 C 5.226562 1.082031 5.914062 -0.898438 6.46875 -2.515625 C 7.03125 -4.128906 7.675781 -5.726562 8.40625 -7.3125 C 9.132812 -8.894531 10.117188 -10.828125 11.359375 -13.109375 C 12.003906 -14.285156 12.632812 -15.285156 13.25 -16.109375 C 13.863281 -16.929688 14.816406 -17.34375 16.109375 -17.34375 C 16.753906 -17.34375 17.207031 -16.875 17.46875 -15.9375 C 17.738281 -15 17.898438 -13.972656 17.953125 -12.859375 C 18.015625 -11.742188 18.046875 -10.921875 18.046875 -10.390625 C 18.046875 -8.742188 18.085938 -7.347656 18.171875 -6.203125 C 18.265625 -5.054688 18.601562 -3.925781 19.1875 -2.8125 C 20.539062 -3.101562 21.6875 -3.96875 22.625 -5.40625 C 23.5625 -6.851562 24.410156 -8.101562 25.171875 -9.15625 C 25.585938 -9.800781 25.96875 -10.445312 26.3125 -11.09375 C 26.664062 -11.738281 27.019531 -12.410156 27.375 -13.109375 C 27.90625 -14.054688 28.332031 -14.703125 28.65625 -15.046875 C 28.976562 -15.398438 29.316406 -15.578125 29.671875 -15.578125 C 29.847656 -15.578125 30.171875 -15.519531 30.640625 -15.40625 C 30.929688 -14.351562 30.867188 -13.503906 30.453125 -12.859375 C 30.046875 -12.210938 29.609375 -11.445312 29.140625 -10.5625 C 28.722656 -9.800781 28.160156 -8.816406 27.453125 -7.609375 C 26.753906 -6.410156 25.960938 -5.238281 25.078125 -4.09375 C 24.203125 -2.945312 23.265625 -1.976562 22.265625 -1.1875 C 21.273438 -0.394531 20.25 0 19.1875 0 C 17.25 0 15.988281 -1.726562 15.40625 -5.1875 C 15.226562 -6.1875 15.109375 -7.519531 15.046875 -9.1875 C 14.992188 -10.863281 14.96875 -12.320312 14.96875 -13.5625 C 14.550781 -13.257812 14.050781 -12.582031 13.46875 -11.53125 C 12.882812 -10.476562 12.296875 -9.289062 11.703125 -7.96875 C 11.117188 -6.644531 10.578125 -5.363281 10.078125 -4.125 C 9.578125 -2.894531 9.179688 -1.960938 8.890625 -1.328125 C 8.179688 0.492188 7.609375 2.3125 7.171875 4.125 C 6.734375 5.945312 6.25 7.679688 5.71875 9.328125 C 5.425781 10.265625 5.085938 10.863281 4.703125 11.125 C 4.328125 11.394531 3.726562 11.53125 2.90625 11.53125 C 2.257812 11.53125 1.726562 10.972656 1.3125 9.859375 C 0.90625 8.742188 0.566406 7.347656 0.296875 5.671875 C 0.0351562 4.003906 -0.148438 2.273438 -0.265625 0.484375 C -0.378906 -1.304688 -0.453125 -2.921875 -0.484375 -4.359375 C -0.515625 -5.796875 -0.53125 -6.78125 -0.53125 -7.3125 Z M -0.53125 -7.3125 "/></g></g></g><g fill="#0f484e" fill-opacity="1"><g transform="translate(121.586443, 67.144707)"><g><path d="M 2.46875 -4.578125 C 1.351562 -4.578125 0.632812 -5.25 0.3125 -6.59375 C -0.0078125 -7.945312 -0.0546875 -9.632812 0.171875 -11.65625 C 0.410156 -13.6875 0.835938 -15.710938 1.453125 -17.734375 C 2.066406 -19.765625 2.753906 -21.453125 3.515625 -22.796875 C 4.285156 -24.148438 4.992188 -24.828125 5.640625 -24.828125 C 6.628906 -24.828125 7.09375 -24.367188 7.03125 -23.453125 C 6.976562 -22.546875 6.6875 -21.34375 6.15625 -19.84375 C 5.632812 -18.351562 5.109375 -16.710938 4.578125 -14.921875 C 4.046875 -13.128906 3.78125 -11.382812 3.78125 -9.6875 L 8.015625 -16.109375 C 8.191406 -16.460938 8.570312 -17.078125 9.15625 -17.953125 C 9.738281 -18.835938 10.394531 -19.660156 11.125 -20.421875 C 11.863281 -21.179688 12.585938 -21.5625 13.296875 -21.5625 C 13.992188 -21.5625 14.550781 -21.09375 14.96875 -20.15625 L 15.5 -15.234375 C 15.5 -14.703125 15.523438 -13.878906 15.578125 -12.765625 C 15.640625 -11.648438 15.769531 -10.519531 15.96875 -9.375 C 16.175781 -8.226562 16.515625 -7.242188 16.984375 -6.421875 C 17.453125 -5.597656 18.097656 -5.1875 18.921875 -5.1875 C 19.804688 -5.1875 20.734375 -5.710938 21.703125 -6.765625 C 22.671875 -7.828125 23.609375 -9.046875 24.515625 -10.421875 C 25.421875 -11.804688 26.238281 -13.023438 26.96875 -14.078125 C 27.707031 -15.140625 28.285156 -15.671875 28.703125 -15.671875 C 29.578125 -15.671875 29.984375 -15.332031 29.921875 -14.65625 C 29.867188 -13.976562 29.578125 -13.195312 29.046875 -12.3125 C 28.523438 -11.4375 27.984375 -10.617188 27.421875 -9.859375 C 26.859375 -9.097656 26.519531 -8.628906 26.40625 -8.453125 C 26 -7.921875 25.441406 -7.242188 24.734375 -6.421875 C 24.035156 -5.597656 23.300781 -4.832031 22.53125 -4.125 C 21.769531 -3.425781 21.035156 -2.988281 20.328125 -2.8125 C 19.742188 -2.632812 19.1875 -2.546875 18.65625 -2.546875 C 17.3125 -2.546875 16.242188 -3.046875 15.453125 -4.046875 C 14.660156 -5.046875 14.054688 -6.132812 13.640625 -7.3125 C 13.054688 -9.070312 12.734375 -10.640625 12.671875 -12.015625 C 12.617188 -13.390625 12.617188 -14.5625 12.671875 -15.53125 C 12.734375 -16.5 12.617188 -17.25 12.328125 -17.78125 C 11.617188 -17.3125 10.867188 -16.375 10.078125 -14.96875 C 9.285156 -13.5625 8.460938 -12.050781 7.609375 -10.4375 C 6.765625 -8.820312 5.914062 -7.441406 5.0625 -6.296875 C 4.207031 -5.148438 3.34375 -4.578125 2.46875 -4.578125 Z M 2.46875 -4.578125 "/></g></g></g><g fill="#0f484e" fill-opacity="1"><g transform="translate(147.994082, 67.144707)"><g><path d="M 0 -8.890625 C 0 -10.117188 0.289062 -11.644531 0.875 -13.46875 C 1.46875 -15.289062 2.289062 -17.09375 3.34375 -18.875 C 4.40625 -20.664062 5.625 -22.148438 7 -23.328125 C 8.375 -24.503906 9.828125 -25.09375 11.359375 -25.09375 C 12.765625 -25.09375 13.90625 -24.679688 14.78125 -23.859375 C 15.664062 -23.035156 16.195312 -22.195312 16.375 -21.34375 C 16.550781 -20.5 16.257812 -20.078125 15.5 -20.078125 C 14.90625 -20.078125 14.300781 -20.410156 13.6875 -21.078125 C 13.070312 -21.753906 12.351562 -22.09375 11.53125 -22.09375 C 10.882812 -22.09375 10.101562 -21.710938 9.1875 -20.953125 C 8.28125 -20.191406 7.179688 -18.695312 5.890625 -16.46875 C 5.304688 -15.519531 4.765625 -14.296875 4.265625 -12.796875 C 3.765625 -11.304688 3.515625 -9.828125 3.515625 -8.359375 C 3.640625 -8.472656 3.6875 -8.515625 3.65625 -8.484375 C 3.625 -8.460938 3.726562 -8.566406 3.96875 -8.796875 L 4.671875 -9.859375 C 5.140625 -10.566406 5.679688 -11.476562 6.296875 -12.59375 C 6.910156 -13.707031 7.539062 -14.832031 8.1875 -15.96875 C 8.832031 -17.113281 9.414062 -18.082031 9.9375 -18.875 C 10.46875 -19.675781 10.882812 -20.078125 11.1875 -20.078125 C 12.238281 -20.078125 12.851562 -19.691406 13.03125 -18.921875 C 13.207031 -18.160156 13.28125 -17.222656 13.25 -16.109375 C 13.21875 -14.992188 13.320312 -13.878906 13.5625 -12.765625 C 13.90625 -11.179688 14.441406 -10.019531 15.171875 -9.28125 C 15.910156 -8.550781 16.75 -8.1875 17.6875 -8.1875 C 19.332031 -8.1875 21.15625 -9.1875 23.15625 -11.1875 C 23.976562 -11.945312 24.5625 -12.578125 24.90625 -13.078125 C 25.257812 -13.578125 25.734375 -14.148438 26.328125 -14.796875 C 26.734375 -15.378906 27.257812 -15.671875 27.90625 -15.671875 C 28.550781 -15.671875 28.828125 -15.125 28.734375 -14.03125 C 28.648438 -12.945312 27.492188 -11.320312 25.265625 -9.15625 L 22.625 -7.046875 C 20.925781 -5.867188 19.28125 -5.28125 17.6875 -5.28125 C 16.226562 -5.28125 14.953125 -5.71875 13.859375 -6.59375 C 12.773438 -7.476562 11.9375 -8.566406 11.34375 -9.859375 C 10.757812 -11.148438 10.46875 -12.410156 10.46875 -13.640625 C 10.0625 -13.347656 9.59375 -12.703125 9.0625 -11.703125 C 8.539062 -10.710938 7.96875 -9.644531 7.34375 -8.5 C 6.726562 -7.351562 6.097656 -6.351562 5.453125 -5.5 C 4.804688 -4.644531 4.160156 -4.21875 3.515625 -4.21875 C 1.878906 -4.21875 0.882812 -4.597656 0.53125 -5.359375 C 0.175781 -6.128906 0 -7.304688 0 -8.890625 Z M 0 -8.890625 "/></g></g></g><g fill="#0f484e" fill-opacity="1"><g transform="translate(173.521462, 67.144707)"><g><path d="M 1.0625 14.53125 C 1.0625 15.757812 1.441406 16.375 2.203125 16.375 C 2.609375 16.375 3.046875 16.226562 3.515625 15.9375 C 3.984375 15.644531 4.367188 15.378906 4.671875 15.140625 C 5.835938 14.265625 6.875 12.929688 7.78125 11.140625 C 8.695312 9.347656 9.359375 7.71875 9.765625 6.25 C 10.066406 5.25 10.226562 4.234375 10.25 3.203125 C 10.28125 2.179688 10.296875 1.054688 10.296875 -0.171875 C 9.597656 0.234375 8.789062 0.945312 7.875 1.96875 C 6.96875 3 6.25 3.835938 5.71875 4.484375 C 4.664062 5.773438 3.625 7.332031 2.59375 9.15625 C 1.570312 10.976562 1.0625 12.769531 1.0625 14.53125 Z M 0.265625 -14.265625 C 0.265625 -15.785156 0.675781 -17.144531 1.5 -18.34375 C 2.320312 -19.550781 3.300781 -20.519531 4.4375 -21.25 C 5.582031 -21.988281 6.566406 -22.359375 7.390625 -22.359375 C 8.035156 -22.359375 8.519531 -22.125 8.84375 -21.65625 C 9.164062 -21.1875 9.179688 -20.394531 8.890625 -19.28125 C 8.179688 -19.101562 7.679688 -19 7.390625 -18.96875 C 7.097656 -18.9375 6.863281 -18.847656 6.6875 -18.703125 C 6.507812 -18.554688 6.1875 -18.21875 5.71875 -17.6875 C 4.550781 -16.394531 4.007812 -15.351562 4.09375 -14.5625 C 4.175781 -13.769531 4.644531 -13.035156 5.5 -12.359375 C 6.351562 -11.691406 7.410156 -10.859375 8.671875 -9.859375 C 9.929688 -8.859375 11.117188 -7.507812 12.234375 -5.8125 C 13.523438 -6.6875 14.847656 -7.710938 16.203125 -8.890625 L 24.390625 -14.609375 C 25.148438 -15.140625 25.804688 -15.503906 26.359375 -15.703125 C 26.921875 -15.910156 27.40625 -16.015625 27.8125 -16.015625 C 28.519531 -16.015625 28.8125 -15.722656 28.6875 -15.140625 C 28.570312 -14.554688 28.019531 -13.96875 27.03125 -13.375 L 21.046875 -9.25 C 20.804688 -9.125 20.304688 -8.78125 19.546875 -8.21875 C 18.785156 -7.664062 17.945312 -7.050781 17.03125 -6.375 C 16.125 -5.707031 15.347656 -5.078125 14.703125 -4.484375 C 14.054688 -3.898438 13.703125 -3.519531 13.640625 -3.34375 C 13.585938 -3.050781 13.675781 -2.492188 13.90625 -1.671875 C 14.144531 -0.847656 14.304688 0.21875 14.390625 1.53125 C 14.484375 2.851562 14.304688 4.46875 13.859375 6.375 C 13.421875 8.289062 12.46875 10.507812 11 13.03125 C 9.707031 15.195312 8.296875 16.789062 6.765625 17.8125 C 5.242188 18.84375 3.8125 19.359375 2.46875 19.359375 C 1.226562 19.359375 0.210938 18.945312 -0.578125 18.125 C -1.367188 17.3125 -1.765625 16.113281 -1.765625 14.53125 C -1.765625 12.53125 -1.28125 10.585938 -0.3125 8.703125 C 0.65625 6.828125 1.8125 5.097656 3.15625 3.515625 C 4.507812 1.929688 5.757812 0.570312 6.90625 -0.5625 C 8.050781 -1.707031 8.800781 -2.546875 9.15625 -3.078125 C 8.445312 -4.316406 7.59375 -5.390625 6.59375 -6.296875 C 5.601562 -7.203125 4.625 -8.035156 3.65625 -8.796875 C 2.6875 -9.566406 1.878906 -10.375 1.234375 -11.21875 C 0.585938 -12.070312 0.265625 -13.085938 0.265625 -14.265625 Z M 0.265625 -14.265625 "/></g></g></g></g></g></g><g clip-path="url(#d86ba4a5f6)"><path fill="#0f484e" d="M 47.875 47.917969 C 43.847656 45.980469 39.214844 44.914062 34.316406 44.957031 C 33.972656 44.484375 39.089844 35.929688 39.636719 34.535156 C 40.007812 33.59375 41.015625 31.523438 40.371094 30.742188 C 40.03125 30.328125 31.558594 26.117188 30.789062 26.019531 C 28.277344 25.703125 24.847656 27.265625 22.386719 28.117188 C 20.417969 28.800781 14.707031 30.8125 13.3125 31.964844 C 12.828125 32.363281 8 41.65625 8.066406 42.230469 C 8.285156 44.226562 20.265625 48.117188 22.132812 49.347656 C 13.4375 56.09375 7.21875 65.566406 10.246094 76.941406 C 16.386719 100 45.933594 103.027344 57.734375 84.171875 C 58.789062 84.742188 59.917969 85.242188 61.128906 85.660156 C 85.695312 94.148438 106.078125 66.324219 90.566406 44.960938 C 79.128906 29.210938 58.117188 33.125 47.878906 47.917969 Z M 39.707031 46.289062 C 56.546875 48.859375 65.160156 64.570312 59.625 78.976562 C 58.851562 78.40625 58.105469 77.777344 57.386719 77.097656 C 58.03125 75.035156 58.402344 72.804688 58.429688 70.4375 C 58.605469 54.96875 45.980469 48.761719 32.292969 49.0625 C 32.703125 44.953125 36.558594 45.808594 39.707031 46.289062 Z M 52.007812 50.367188 C 56.972656 43.371094 67.734375 36.738281 77.460938 40.160156 C 101.640625 48.667969 91.355469 86.683594 66.550781 82.167969 C 64.375 81.769531 62.199219 80.773438 60.164062 79.359375 C 60.257812 79.117188 60.355469 78.867188 60.445312 78.617188 C 64.738281 66.855469 60.421875 56.398438 52.007812 50.367188 Z M 56.898438 76.625 C 51.625 71.382812 48.15625 63.53125 49.804688 57.371094 C 49.808594 57.351562 50.484375 55.695312 50.730469 55.097656 C 54.0625 57.636719 56.074219 61.042969 57.105469 65.0625 C 58.195312 69.3125 58.007812 73.207031 56.902344 76.625 Z M 29.585938 51.160156 C 29.878906 51.097656 30.398438 50.105469 32.148438 50.121094 C 38.089844 50.183594 42.792969 51.074219 46.464844 52.644531 C 45.460938 55.871094 44.914062 57.871094 44.886719 60.382812 C 44.792969 68.757812 48.117188 76.785156 54.265625 81.851562 C 45.601562 94.105469 23.59375 96.4375 16.171875 79.484375 C 12.238281 70.496094 18.078125 54.945312 27.378906 51.742188 C 28.828125 51.246094 29.394531 51.203125 29.582031 51.160156 Z M 29.421875 50.292969 L 18.976562 40.800781 C 18.988281 40.328125 26.757812 37.542969 27.75 37.1875 C 28.28125 36.996094 31.070312 35.949219 31.304688 36.105469 Z M 30.40625 50.210938 C 30.234375 50.214844 30.167969 49.292969 30.171875 49.148438 C 30.195312 48.121094 31.871094 36.914062 32.140625 36.324219 C 32.542969 35.445312 37.625 32.984375 38.640625 32.722656 C 38.960938 32.640625 39.0625 32.71875 39.324219 32.871094 Z M 32.011719 27.378906 L 38.859375 31.128906 L 38.785156 31.660156 L 31.980469 34.355469 Z M 31.328125 27.230469 C 31.511719 27.5 30.667969 32.820312 31.140625 33.753906 C 30.808594 34.097656 23.289062 29.929688 22.921875 28.949219 C 24.347656 28.601562 30.398438 25.84375 31.328125 27.230469 Z M 30.84375 34.742188 L 18.664062 39.515625 L 22.019531 30.015625 C 22.773438 29.59375 29.757812 33.992188 30.84375 34.742188 Z M 16.792969 31.035156 C 17.332031 30.792969 21.320312 29.304688 21.5625 29.792969 L 17.902344 38.757812 L 13.394531 33.328125 C 13.375 32.628906 16.164062 31.3125 16.792969 31.03125 Z M 12.71875 33.9375 L 17.378906 39.824219 L 10.035156 41.6875 C 9.179688 41.410156 12.554688 34.863281 12.71875 33.941406 Z M 10.34375 42.597656 L 18.066406 40.730469 L 28.28125 50.296875 Z M 55.714844 85.921875 C 35.828125 111.996094 -7.425781 81.769531 17.992188 53.921875 C 18.554688 53.308594 22.460938 49.828125 22.898438 49.722656 C 23.28125 49.632812 25.648438 50.816406 26.238281 50.992188 C 14.378906 59.640625 7.941406 75.425781 20.464844 86.890625 C 31.539062 97.023438 47.839844 93.441406 54.925781 82.375 C 55.625 82.90625 56.367188 83.402344 57.15625 83.855469 C 56.710938 84.550781 56.234375 85.242188 55.714844 85.921875 Z M 58.085938 83.59375 C 58.039062 83.554688 57.601562 83.335938 57.523438 83.257812 C 56.769531 82.796875 56.039062 82.28125 55.335938 81.707031 C 55.195312 81.585938 54.976562 81.367188 54.71875 81.1875 C 50.988281 77.941406 48 73.097656 46.367188 66.375 C 46.171875 65.5625 45.5625 61.667969 45.5625 59.917969 C 45.5625 59.816406 46.628906 53.308594 46.875 53.132812 C 47.226562 52.886719 49.554688 54.277344 49.941406 54.664062 C 50.378906 55.101562 49.109375 57.054688 48.847656 58.605469 C 47.878906 64.277344 50.945312 72.246094 56.65625 77.585938 C 56.808594 77.753906 57.082031 78.011719 57.09375 77.984375 C 57.796875 78.613281 59.476562 79.878906 59.574219 79.914062 C 63.835938 82.777344 69.136719 84.183594 75.089844 82.746094 C 94.097656 78.160156 98.773438 53.195312 82.65625 42.070312 C 70.953125 33.988281 59.003906 40.160156 51.515625 50.019531 C 50.601562 49.394531 49.636719 48.820312 48.636719 48.300781 C 49.25 47.027344 51.117188 45.242188 52.167969 44.101562 C 65.609375 29.507812 87.601562 34.125 93.980469 52.972656 C 102.015625 76.703125 75.171875 93.382812 58.089844 83.59375 Z M 58.085938 83.59375 " fill-opacity="1" fill-rule="nonzero"/></g><g clip-path="url(#c9194dbe48)"><g transform="matrix(1, 0, 0, 1, 173, 90)"><g clip-path="url(#d43c6db917)"><g fill="#0f484e" fill-opacity="1"><g transform="translate(0.898343, 12.68369)"><g><path d="M 5.203125 -8.46875 L 5.203125 -2.203125 C 5.203125 -1.515625 4.984375 -0.960938 4.546875 -0.546875 C 4.117188 -0.128906 3.554688 0.078125 2.859375 0.078125 C 2.140625 0.078125 1.566406 -0.128906 1.140625 -0.546875 C 0.710938 -0.972656 0.5 -1.554688 0.5 -2.296875 L 1.609375 -2.296875 C 1.609375 -1.878906 1.710938 -1.539062 1.921875 -1.28125 C 2.128906 -1.019531 2.441406 -0.890625 2.859375 -0.890625 C 3.265625 -0.890625 3.566406 -1.015625 3.765625 -1.265625 C 3.972656 -1.515625 4.078125 -1.828125 4.078125 -2.203125 L 4.078125 -8.46875 Z M 5.203125 -8.46875 "/></g></g></g><g fill="#0f484e" fill-opacity="1"><g transform="translate(14.614131, 12.68369)"><g><path d="M 2.046875 -7.5625 L 2.046875 -4.734375 L 5.125 -4.734375 L 5.125 -3.828125 L 2.046875 -3.828125 L 2.046875 -0.90625 L 5.484375 -0.90625 L 5.484375 0 L 0.9375 0 L 0.9375 -8.46875 L 5.484375 -8.46875 L 5.484375 -7.5625 Z M 2.046875 -7.5625 "/></g></g></g><g fill="#0f484e" fill-opacity="1"><g transform="translate(28.123617, 12.68369)"><g><path d="M 11.5625 -8.46875 L 9.125 0 L 7.875 0 L 5.90625 -6.8125 L 3.875 0 L 2.640625 0.015625 L 0.28125 -8.46875 L 1.453125 -8.46875 L 3.296875 -1.28125 L 5.34375 -8.46875 L 6.578125 -8.46875 L 8.515625 -1.3125 L 10.375 -8.46875 Z M 11.5625 -8.46875 "/></g></g></g><g fill="#0f484e" fill-opacity="1"><g transform="translate(47.251806, 12.68369)"><g><path d="M 2.046875 -7.5625 L 2.046875 -4.734375 L 5.125 -4.734375 L 5.125 -3.828125 L 2.046875 -3.828125 L 2.046875 -0.90625 L 5.484375 -0.90625 L 5.484375 0 L 0.9375 0 L 0.9375 -8.46875 L 5.484375 -8.46875 L 5.484375 -7.5625 Z M 2.046875 -7.5625 "/></g></g></g><g fill="#0f484e" fill-opacity="1"><g transform="translate(60.761292, 12.68369)"><g><path d="M 2.046875 -0.890625 L 5 -0.890625 L 5 0 L 0.9375 0 L 0.9375 -8.46875 L 2.046875 -8.46875 Z M 2.046875 -0.890625 "/></g></g></g><g fill="#0f484e" fill-opacity="1"><g transform="translate(73.287807, 12.68369)"><g><path d="M 2.046875 -0.890625 L 5 -0.890625 L 5 0 L 0.9375 0 L 0.9375 -8.46875 L 2.046875 -8.46875 Z M 2.046875 -0.890625 "/></g></g></g><g fill="#0f484e" fill-opacity="1"><g transform="translate(85.814322, 12.68369)"><g><path d="M 2.046875 -7.5625 L 2.046875 -4.734375 L 5.125 -4.734375 L 5.125 -3.828125 L 2.046875 -3.828125 L 2.046875 -0.90625 L 5.484375 -0.90625 L 5.484375 0 L 0.9375 0 L 0.9375 -8.46875 L 5.484375 -8.46875 L 5.484375 -7.5625 Z M 2.046875 -7.5625 "/></g></g></g><g fill="#0f484e" fill-opacity="1"><g transform="translate(99.323808, 12.68369)"><g><path d="M 5.390625 0 L 3.375 -3.453125 L 2.046875 -3.453125 L 2.046875 0 L 0.9375 0 L 0.9375 -8.46875 L 3.671875 -8.46875 C 4.304688 -8.46875 4.84375 -8.359375 5.28125 -8.140625 C 5.726562 -7.921875 6.0625 -7.625 6.28125 -7.25 C 6.5 -6.875 6.609375 -6.445312 6.609375 -5.96875 C 6.609375 -5.382812 6.4375 -4.867188 6.09375 -4.421875 C 5.757812 -3.984375 5.257812 -3.691406 4.59375 -3.546875 L 6.71875 0 Z M 2.046875 -4.34375 L 3.671875 -4.34375 C 4.265625 -4.34375 4.710938 -4.488281 5.015625 -4.78125 C 5.316406 -5.082031 5.46875 -5.476562 5.46875 -5.96875 C 5.46875 -6.46875 5.316406 -6.851562 5.015625 -7.125 C 4.722656 -7.40625 4.273438 -7.546875 3.671875 -7.546875 L 2.046875 -7.546875 Z M 2.046875 -4.34375 "/></g></g></g><g fill="#0f484e" fill-opacity="1"><g transform="translate(113.986165, 12.68369)"><g><path d="M 3.625 0.078125 C 3.0625 0.078125 2.554688 -0.0195312 2.109375 -0.21875 C 1.671875 -0.414062 1.328125 -0.6875 1.078125 -1.03125 C 0.828125 -1.382812 0.695312 -1.796875 0.6875 -2.265625 L 1.875 -2.265625 C 1.914062 -1.859375 2.078125 -1.519531 2.359375 -1.25 C 2.648438 -0.976562 3.070312 -0.84375 3.625 -0.84375 C 4.144531 -0.84375 4.554688 -0.972656 4.859375 -1.234375 C 5.160156 -1.503906 5.3125 -1.847656 5.3125 -2.265625 C 5.3125 -2.585938 5.222656 -2.847656 5.046875 -3.046875 C 4.867188 -3.242188 4.644531 -3.394531 4.375 -3.5 C 4.113281 -3.613281 3.753906 -3.726562 3.296875 -3.84375 C 2.742188 -3.988281 2.296875 -4.132812 1.953125 -4.28125 C 1.617188 -4.425781 1.332031 -4.65625 1.09375 -4.96875 C 0.851562 -5.28125 0.734375 -5.703125 0.734375 -6.234375 C 0.734375 -6.691406 0.847656 -7.097656 1.078125 -7.453125 C 1.316406 -7.804688 1.648438 -8.082031 2.078125 -8.28125 C 2.503906 -8.476562 2.992188 -8.578125 3.546875 -8.578125 C 4.335938 -8.578125 4.984375 -8.375 5.484375 -7.96875 C 5.992188 -7.570312 6.28125 -7.046875 6.34375 -6.390625 L 5.140625 -6.390625 C 5.097656 -6.722656 4.925781 -7.007812 4.625 -7.25 C 4.320312 -7.5 3.925781 -7.625 3.4375 -7.625 C 2.976562 -7.625 2.601562 -7.503906 2.3125 -7.265625 C 2.019531 -7.023438 1.875 -6.691406 1.875 -6.265625 C 1.875 -5.953125 1.957031 -5.695312 2.125 -5.5 C 2.300781 -5.3125 2.515625 -5.164062 2.765625 -5.0625 C 3.023438 -4.96875 3.382812 -4.851562 3.84375 -4.71875 C 4.40625 -4.5625 4.851562 -4.410156 5.1875 -4.265625 C 5.53125 -4.117188 5.820312 -3.890625 6.0625 -3.578125 C 6.3125 -3.265625 6.4375 -2.84375 6.4375 -2.3125 C 6.4375 -1.894531 6.328125 -1.503906 6.109375 -1.140625 C 5.890625 -0.773438 5.5625 -0.476562 5.125 -0.25 C 4.695312 -0.03125 4.195312 0.078125 3.625 0.078125 Z M 3.625 0.078125 "/></g></g></g></g></g></g></svg>