<svg width="24" height="24" viewBox="0 0 24 24" fill="none" xmlns="http://www.w3.org/2000/svg">
<path d="M21.7558 20.5775L16.0683 14.89C17.17 13.5292 17.8333 11.8 17.8333 9.91668C17.8333 5.55168 14.2816 2 9.91664 2C5.55164 2 2 5.55164 2 9.91664C2 14.2816 5.55168 17.8333 9.91668 17.8333C11.8 17.8333 13.5292 17.17 14.89 16.0683L20.5775 21.7558C20.74 21.9183 20.9533 22 21.1667 22C21.38 22 21.5934 21.9183 21.7559 21.7558C22.0817 21.43 22.0817 20.9033 21.7558 20.5775ZM9.91668 16.1666C6.47 16.1666 3.66668 13.3633 3.66668 9.91664C3.66668 6.46996 6.47 3.66664 9.91668 3.66664C13.3634 3.66664 16.1667 6.46996 16.1667 9.91664C16.1667 13.3633 13.3633 16.1666 9.91668 16.1666Z" fill="#18484F"/>
</svg>
